# xmcd
# 
# Track frame offsets:
#     150
#     19158
#     36191
#     47963
#     69573
#     89997
#     105239
#     125388
#     143472
#     168321
#     183718
# 
# Disc length: 2650
# 
# Revision: 0
# Processed by: cddbd v1.5.2PL0 Copyright (c) Steve Scherf et al.
# Submitted via: fre:ac v1.0.31
# 
DISCID=970a580b
DTITLE=Various Artist - Steampunk Experiment: Mechanical Cabaret
DYEAR=2013
DGENRE=Steampunk
TTITLE0=Kito and Reija Lee - Sweet Talk
TTITLE1=Nnoiz Papp - Don't Ask Doctor Cora
TTITLE2=Shurkin - Saturn After Party
TTITLE3=Pentaphobe - Bit Sector Shaft
TTITLE4=Beats Antique - Battle
TTITLE5=Mexicans with Guns - El Sol y La Luna
TTITLE6=Buraka Som Sistema - Eskeleto
TTITLE7=Maduro - Catnaps and Cabarets
TTITLE8=Fingathing - Synergy
TTITLE9=Nnoiz Popp - Elektra KharaWahn
TTITLE10=Miss Kitten - Grace
EXTD=
EXTT0=
EXTT1=
EXTT2=
EXTT3=
EXTT4=
EXTT5=
EXTT6=
EXTT7=
EXTT8=
EXTT9=
EXTT10=
PLAYORDER=
